<mxfile host="app.diagrams.net" agent="Mozilla/5.0 (Windows NT 10.0; Win64; x64) AppleWebKit/537.36 (KHTML, like Gecko) Chrome/136.0.0.0 Safari/537.36 Edg/136.0.0.0" version="26.2.14">
  <diagram name="第 1 页" id="gfgE5aR6EzTAMueM4CSL">
    <mxGraphModel dx="2406" dy="2038" grid="1" gridSize="10" guides="1" tooltips="1" connect="1" arrows="1" fold="1" page="1" pageScale="1" pageWidth="827" pageHeight="1169" math="0" shadow="0">
      <root>
        <mxCell id="0" />
        <mxCell id="1" parent="0" />
        <mxCell id="JBllpMUSSV6mAoZpoI0Q-1" value="&lt;font style=&quot;font-size: 16px;&quot;&gt;操作日志&lt;/font&gt;" style="rounded=0;whiteSpace=wrap;html=1;" vertex="1" parent="1">
          <mxGeometry x="420" y="560" width="80" height="40" as="geometry" />
        </mxCell>
        <mxCell id="JBllpMUSSV6mAoZpoI0Q-2" value="&lt;font style=&quot;font-size: 16px;&quot;&gt;设备数据&lt;/font&gt;" style="rounded=0;whiteSpace=wrap;html=1;" vertex="1" parent="1">
          <mxGeometry x="414" y="10" width="80" height="40" as="geometry" />
        </mxCell>
        <mxCell id="JBllpMUSSV6mAoZpoI0Q-3" value="&lt;font face=&quot;Helvetica&quot; style=&quot;font-size: 16px;&quot;&gt;报警信息&lt;/font&gt;" style="rounded=0;whiteSpace=wrap;html=1;" vertex="1" parent="1">
          <mxGeometry x="630" y="480" width="80" height="40" as="geometry" />
        </mxCell>
        <mxCell id="JBllpMUSSV6mAoZpoI0Q-4" value="&lt;font face=&quot;Helvetica&quot; style=&quot;font-size: 16px;&quot;&gt;登录日志&lt;/font&gt;" style="rounded=0;whiteSpace=wrap;html=1;" vertex="1" parent="1">
          <mxGeometry x="230" y="510" width="80" height="40" as="geometry" />
        </mxCell>
        <mxCell id="JBllpMUSSV6mAoZpoI0Q-5" value="&lt;font style=&quot;font-size: 16px;&quot;&gt;菜单&lt;/font&gt;" style="rounded=0;whiteSpace=wrap;html=1;" vertex="1" parent="1">
          <mxGeometry x="10" y="500" width="80" height="40" as="geometry" />
        </mxCell>
        <mxCell id="JBllpMUSSV6mAoZpoI0Q-6" value="&lt;font style=&quot;font-size: 16px;&quot;&gt;用户&lt;/font&gt;" style="rounded=0;whiteSpace=wrap;html=1;" vertex="1" parent="1">
          <mxGeometry x="220" y="290" width="80" height="40" as="geometry" />
        </mxCell>
        <mxCell id="JBllpMUSSV6mAoZpoI0Q-7" value="&lt;font style=&quot;font-size: 16px;&quot;&gt;设备&lt;/font&gt;" style="rounded=0;whiteSpace=wrap;html=1;" vertex="1" parent="1">
          <mxGeometry x="480" y="210" width="80" height="40" as="geometry" />
        </mxCell>
        <mxCell id="JBllpMUSSV6mAoZpoI0Q-8" value="&lt;font style=&quot;font-size: 16px;&quot;&gt;关联&lt;/font&gt;" style="rhombus;whiteSpace=wrap;html=1;" vertex="1" parent="1">
          <mxGeometry x="350" y="240" width="80" height="60" as="geometry" />
        </mxCell>
        <mxCell id="JBllpMUSSV6mAoZpoI0Q-10" value="" style="endArrow=none;html=1;rounded=0;entryX=0;entryY=0.5;entryDx=0;entryDy=0;exitX=1;exitY=0;exitDx=0;exitDy=0;" edge="1" parent="1" source="JBllpMUSSV6mAoZpoI0Q-6" target="JBllpMUSSV6mAoZpoI0Q-8">
          <mxGeometry width="50" height="50" relative="1" as="geometry">
            <mxPoint x="280" y="300" as="sourcePoint" />
            <mxPoint x="330" y="290" as="targetPoint" />
          </mxGeometry>
        </mxCell>
        <mxCell id="JBllpMUSSV6mAoZpoI0Q-11" value="" style="endArrow=none;html=1;rounded=0;exitX=1;exitY=0.5;exitDx=0;exitDy=0;entryX=0;entryY=1;entryDx=0;entryDy=0;" edge="1" parent="1" source="JBllpMUSSV6mAoZpoI0Q-8" target="JBllpMUSSV6mAoZpoI0Q-7">
          <mxGeometry width="50" height="50" relative="1" as="geometry">
            <mxPoint x="410" y="290" as="sourcePoint" />
            <mxPoint x="450" y="250" as="targetPoint" />
          </mxGeometry>
        </mxCell>
        <mxCell id="JBllpMUSSV6mAoZpoI0Q-12" value="&lt;p class=&quot;MsoNormal&quot;&gt;&lt;font face=&quot;Helvetica&quot; style=&quot;font-size: 16px;&quot;&gt;用户编号&lt;/font&gt;&lt;/p&gt;" style="ellipse;whiteSpace=wrap;html=1;" vertex="1" parent="1">
          <mxGeometry x="20" y="300" width="80" height="40" as="geometry" />
        </mxCell>
        <mxCell id="JBllpMUSSV6mAoZpoI0Q-13" value="&lt;p class=&quot;MsoNormal&quot;&gt;&lt;font face=&quot;Helvetica&quot; style=&quot;font-size: 16px;&quot;&gt;用户昵称&lt;/font&gt;&lt;/p&gt;" style="ellipse;whiteSpace=wrap;html=1;" vertex="1" parent="1">
          <mxGeometry x="190" y="140" width="80" height="40" as="geometry" />
        </mxCell>
        <mxCell id="JBllpMUSSV6mAoZpoI0Q-14" value="&lt;p class=&quot;MsoNormal&quot;&gt;&lt;font face=&quot;Helvetica&quot; style=&quot;font-size: 16px;&quot;&gt;用户名&lt;/font&gt;&lt;/p&gt;" style="ellipse;whiteSpace=wrap;html=1;" vertex="1" parent="1">
          <mxGeometry x="50" y="350" width="80" height="40" as="geometry" />
        </mxCell>
        <mxCell id="JBllpMUSSV6mAoZpoI0Q-15" value="&lt;p class=&quot;MsoNormal&quot;&gt;&lt;font face=&quot;Helvetica&quot; style=&quot;font-size: 16px;&quot;&gt;邮箱&lt;/font&gt;&lt;/p&gt;" style="ellipse;whiteSpace=wrap;html=1;" vertex="1" parent="1">
          <mxGeometry x="360" y="360" width="80" height="40" as="geometry" />
        </mxCell>
        <mxCell id="JBllpMUSSV6mAoZpoI0Q-16" value="&lt;p class=&quot;MsoNormal&quot;&gt;&lt;font face=&quot;Helvetica&quot; style=&quot;font-size: 16px;&quot;&gt;密码&lt;/font&gt;&lt;/p&gt;" style="ellipse;whiteSpace=wrap;html=1;" vertex="1" parent="1">
          <mxGeometry x="70" y="210" width="80" height="40" as="geometry" />
        </mxCell>
        <mxCell id="JBllpMUSSV6mAoZpoI0Q-17" value="&lt;p class=&quot;MsoNormal&quot;&gt;&lt;font style=&quot;font-size: 16px;&quot;&gt;手机号&lt;/font&gt;&lt;/p&gt;" style="ellipse;whiteSpace=wrap;html=1;" vertex="1" parent="1">
          <mxGeometry x="20" y="250" width="80" height="40" as="geometry" />
        </mxCell>
        <mxCell id="JBllpMUSSV6mAoZpoI0Q-18" value="&lt;p class=&quot;MsoNormal&quot;&gt;&lt;font face=&quot;Helvetica&quot; style=&quot;font-size: 16px;&quot;&gt;性别&lt;/font&gt;&lt;/p&gt;" style="ellipse;whiteSpace=wrap;html=1;" vertex="1" parent="1">
          <mxGeometry x="355" y="310" width="80" height="40" as="geometry" />
        </mxCell>
        <mxCell id="JBllpMUSSV6mAoZpoI0Q-19" value="&lt;p class=&quot;MsoNormal&quot;&gt;&lt;font style=&quot;font-size: 16px;&quot;&gt;头像&lt;/font&gt;&lt;/p&gt;" style="ellipse;whiteSpace=wrap;html=1;" vertex="1" parent="1">
          <mxGeometry x="120" y="170" width="80" height="40" as="geometry" />
        </mxCell>
        <mxCell id="JBllpMUSSV6mAoZpoI0Q-20" value="&lt;p class=&quot;MsoNormal&quot;&gt;&lt;font face=&quot;Helvetica&quot; style=&quot;font-size: 16px;&quot;&gt;创建时间&lt;/font&gt;&lt;/p&gt;" style="ellipse;whiteSpace=wrap;html=1;" vertex="1" parent="1">
          <mxGeometry x="280" y="140" width="90" height="40" as="geometry" />
        </mxCell>
        <mxCell id="JBllpMUSSV6mAoZpoI0Q-22" value="" style="endArrow=none;html=1;rounded=0;exitX=1;exitY=0;exitDx=0;exitDy=0;entryX=0;entryY=1;entryDx=0;entryDy=0;" edge="1" parent="1" source="JBllpMUSSV6mAoZpoI0Q-14" target="JBllpMUSSV6mAoZpoI0Q-6">
          <mxGeometry width="50" height="50" relative="1" as="geometry">
            <mxPoint x="150" y="380" as="sourcePoint" />
            <mxPoint x="200" y="330" as="targetPoint" />
          </mxGeometry>
        </mxCell>
        <mxCell id="JBllpMUSSV6mAoZpoI0Q-23" value="" style="endArrow=none;html=1;rounded=0;exitX=-0.014;exitY=0.324;exitDx=0;exitDy=0;entryX=1;entryY=0.75;entryDx=0;entryDy=0;exitPerimeter=0;" edge="1" parent="1" source="JBllpMUSSV6mAoZpoI0Q-15" target="JBllpMUSSV6mAoZpoI0Q-6">
          <mxGeometry width="50" height="50" relative="1" as="geometry">
            <mxPoint x="190" y="390" as="sourcePoint" />
            <mxPoint x="240" y="340" as="targetPoint" />
          </mxGeometry>
        </mxCell>
        <mxCell id="JBllpMUSSV6mAoZpoI0Q-24" value="" style="endArrow=none;html=1;rounded=0;exitX=0.018;exitY=0.316;exitDx=0;exitDy=0;exitPerimeter=0;entryX=1;entryY=0.25;entryDx=0;entryDy=0;" edge="1" parent="1" source="JBllpMUSSV6mAoZpoI0Q-18" target="JBllpMUSSV6mAoZpoI0Q-6">
          <mxGeometry width="50" height="50" relative="1" as="geometry">
            <mxPoint x="270" y="425" as="sourcePoint" />
            <mxPoint x="250" y="340" as="targetPoint" />
          </mxGeometry>
        </mxCell>
        <mxCell id="JBllpMUSSV6mAoZpoI0Q-25" value="" style="endArrow=none;html=1;rounded=0;exitX=1;exitY=0.5;exitDx=0;exitDy=0;entryX=0;entryY=0.5;entryDx=0;entryDy=0;" edge="1" parent="1" source="JBllpMUSSV6mAoZpoI0Q-12" target="JBllpMUSSV6mAoZpoI0Q-6">
          <mxGeometry width="50" height="50" relative="1" as="geometry">
            <mxPoint x="138" y="346" as="sourcePoint" />
            <mxPoint x="200" y="300" as="targetPoint" />
          </mxGeometry>
        </mxCell>
        <mxCell id="JBllpMUSSV6mAoZpoI0Q-26" value="" style="endArrow=none;html=1;rounded=0;exitX=1.016;exitY=0.718;exitDx=0;exitDy=0;entryX=0.25;entryY=0;entryDx=0;entryDy=0;exitPerimeter=0;" edge="1" parent="1" source="JBllpMUSSV6mAoZpoI0Q-17" target="JBllpMUSSV6mAoZpoI0Q-6">
          <mxGeometry width="50" height="50" relative="1" as="geometry">
            <mxPoint x="120" y="290" as="sourcePoint" />
            <mxPoint x="210" y="270" as="targetPoint" />
          </mxGeometry>
        </mxCell>
        <mxCell id="JBllpMUSSV6mAoZpoI0Q-27" value="" style="endArrow=none;html=1;rounded=0;exitX=1;exitY=1;exitDx=0;exitDy=0;entryX=0.25;entryY=0;entryDx=0;entryDy=0;" edge="1" parent="1" source="JBllpMUSSV6mAoZpoI0Q-16" target="JBllpMUSSV6mAoZpoI0Q-6">
          <mxGeometry width="50" height="50" relative="1" as="geometry">
            <mxPoint x="150" y="240" as="sourcePoint" />
            <mxPoint x="240" y="320" as="targetPoint" />
          </mxGeometry>
        </mxCell>
        <mxCell id="JBllpMUSSV6mAoZpoI0Q-28" value="" style="endArrow=none;html=1;rounded=0;exitX=1;exitY=1;exitDx=0;exitDy=0;entryX=0.25;entryY=0;entryDx=0;entryDy=0;" edge="1" parent="1" target="JBllpMUSSV6mAoZpoI0Q-6">
          <mxGeometry width="50" height="50" relative="1" as="geometry">
            <mxPoint x="190" y="204" as="sourcePoint" />
            <mxPoint x="262" y="260" as="targetPoint" />
          </mxGeometry>
        </mxCell>
        <mxCell id="JBllpMUSSV6mAoZpoI0Q-29" value="" style="endArrow=none;html=1;rounded=0;exitX=1;exitY=1;exitDx=0;exitDy=0;entryX=0.5;entryY=0;entryDx=0;entryDy=0;" edge="1" parent="1" target="JBllpMUSSV6mAoZpoI0Q-6">
          <mxGeometry width="50" height="50" relative="1" as="geometry">
            <mxPoint x="235" y="180" as="sourcePoint" />
            <mxPoint x="265" y="276" as="targetPoint" />
          </mxGeometry>
        </mxCell>
        <mxCell id="JBllpMUSSV6mAoZpoI0Q-30" value="" style="endArrow=none;html=1;rounded=0;exitX=0;exitY=1;exitDx=0;exitDy=0;entryX=0.75;entryY=0;entryDx=0;entryDy=0;" edge="1" parent="1" source="JBllpMUSSV6mAoZpoI0Q-20" target="JBllpMUSSV6mAoZpoI0Q-6">
          <mxGeometry width="50" height="50" relative="1" as="geometry">
            <mxPoint x="285" y="170" as="sourcePoint" />
            <mxPoint x="280" y="290" as="targetPoint" />
          </mxGeometry>
        </mxCell>
        <mxCell id="JBllpMUSSV6mAoZpoI0Q-37" value="&lt;p class=&quot;MsoNormal&quot;&gt;&lt;font face=&quot;Helvetica&quot; style=&quot;font-size: 16px;&quot;&gt;设备名称&lt;/font&gt;&lt;/p&gt;" style="ellipse;whiteSpace=wrap;html=1;" vertex="1" parent="1">
          <mxGeometry x="630" y="140" width="80" height="40" as="geometry" />
        </mxCell>
        <mxCell id="JBllpMUSSV6mAoZpoI0Q-38" value="&lt;p class=&quot;MsoNormal&quot;&gt;&lt;font face=&quot;Helvetica&quot; style=&quot;font-size: 16px;&quot;&gt;在线状态&lt;/font&gt;&lt;/p&gt;" style="ellipse;whiteSpace=wrap;html=1;" vertex="1" parent="1">
          <mxGeometry x="660" y="190" width="80" height="40" as="geometry" />
        </mxCell>
        <mxCell id="JBllpMUSSV6mAoZpoI0Q-39" value="&lt;p class=&quot;MsoNormal&quot;&gt;&lt;font face=&quot;Helvetica&quot; style=&quot;font-size: 16px;&quot;&gt;用户编号&lt;/font&gt;&lt;/p&gt;" style="ellipse;whiteSpace=wrap;html=1;" vertex="1" parent="1">
          <mxGeometry x="670" y="240" width="80" height="40" as="geometry" />
        </mxCell>
        <mxCell id="JBllpMUSSV6mAoZpoI0Q-40" value="&lt;p class=&quot;MsoNormal&quot;&gt;&lt;font face=&quot;Helvetica&quot; style=&quot;font-size: 16px;&quot;&gt;最后活跃时间&lt;/font&gt;&lt;/p&gt;" style="ellipse;whiteSpace=wrap;html=1;" vertex="1" parent="1">
          <mxGeometry x="660" y="300" width="110" height="40" as="geometry" />
        </mxCell>
        <mxCell id="JBllpMUSSV6mAoZpoI0Q-41" value="&lt;p class=&quot;MsoNormal&quot;&gt;&lt;font face=&quot;Helvetica&quot; style=&quot;font-size: 16px;&quot;&gt;所属产品编号&lt;/font&gt;&lt;/p&gt;" style="ellipse;whiteSpace=wrap;html=1;" vertex="1" parent="1">
          <mxGeometry x="515" y="100" width="110" height="40" as="geometry" />
        </mxCell>
        <mxCell id="JBllpMUSSV6mAoZpoI0Q-42" value="&lt;p class=&quot;MsoNormal&quot;&gt;&lt;span style=&quot;color: rgb(0, 0, 0);&quot;&gt;&lt;font face=&quot;Helvetica&quot; style=&quot;font-size: 16px;&quot;&gt;创建时间&lt;/font&gt;&lt;/span&gt;&lt;/p&gt;" style="ellipse;whiteSpace=wrap;html=1;" vertex="1" parent="1">
          <mxGeometry x="650" y="350" width="80" height="40" as="geometry" />
        </mxCell>
        <mxCell id="JBllpMUSSV6mAoZpoI0Q-43" value="" style="endArrow=none;html=1;rounded=0;entryX=0.281;entryY=1.017;entryDx=0;entryDy=0;entryPerimeter=0;exitX=0.5;exitY=0;exitDx=0;exitDy=0;" edge="1" parent="1" source="JBllpMUSSV6mAoZpoI0Q-7" target="JBllpMUSSV6mAoZpoI0Q-41">
          <mxGeometry width="50" height="50" relative="1" as="geometry">
            <mxPoint x="500" y="200" as="sourcePoint" />
            <mxPoint x="540" y="160" as="targetPoint" />
          </mxGeometry>
        </mxCell>
        <mxCell id="JBllpMUSSV6mAoZpoI0Q-44" value="" style="endArrow=none;html=1;rounded=0;entryX=0;entryY=1;entryDx=0;entryDy=0;exitX=1;exitY=0.5;exitDx=0;exitDy=0;" edge="1" parent="1" source="JBllpMUSSV6mAoZpoI0Q-7" target="JBllpMUSSV6mAoZpoI0Q-37">
          <mxGeometry width="50" height="50" relative="1" as="geometry">
            <mxPoint x="530" y="219.5" as="sourcePoint" />
            <mxPoint x="588" y="160.5" as="targetPoint" />
          </mxGeometry>
        </mxCell>
        <mxCell id="JBllpMUSSV6mAoZpoI0Q-45" value="" style="endArrow=none;html=1;rounded=0;entryX=0;entryY=0.5;entryDx=0;entryDy=0;exitX=1;exitY=0.75;exitDx=0;exitDy=0;" edge="1" parent="1" source="JBllpMUSSV6mAoZpoI0Q-7" target="JBllpMUSSV6mAoZpoI0Q-38">
          <mxGeometry width="50" height="50" relative="1" as="geometry">
            <mxPoint x="528" y="235.5" as="sourcePoint" />
            <mxPoint x="630" y="190" as="targetPoint" />
          </mxGeometry>
        </mxCell>
        <mxCell id="JBllpMUSSV6mAoZpoI0Q-46" value="" style="endArrow=none;html=1;rounded=0;entryX=0;entryY=0.5;entryDx=0;entryDy=0;exitX=1;exitY=1;exitDx=0;exitDy=0;" edge="1" parent="1" source="JBllpMUSSV6mAoZpoI0Q-7" target="JBllpMUSSV6mAoZpoI0Q-39">
          <mxGeometry width="50" height="50" relative="1" as="geometry">
            <mxPoint x="528" y="250" as="sourcePoint" />
            <mxPoint x="660" y="224.5" as="targetPoint" />
          </mxGeometry>
        </mxCell>
        <mxCell id="JBllpMUSSV6mAoZpoI0Q-47" value="" style="endArrow=none;html=1;rounded=0;entryX=0.014;entryY=0.249;entryDx=0;entryDy=0;entryPerimeter=0;exitX=0.895;exitY=1.062;exitDx=0;exitDy=0;exitPerimeter=0;" edge="1" parent="1" source="JBllpMUSSV6mAoZpoI0Q-7" target="JBllpMUSSV6mAoZpoI0Q-40">
          <mxGeometry width="50" height="50" relative="1" as="geometry">
            <mxPoint x="500" y="250" as="sourcePoint" />
            <mxPoint x="642" y="270" as="targetPoint" />
          </mxGeometry>
        </mxCell>
        <mxCell id="JBllpMUSSV6mAoZpoI0Q-48" value="" style="endArrow=none;html=1;rounded=0;entryX=0;entryY=0.25;entryDx=0;entryDy=0;entryPerimeter=0;exitX=0.659;exitY=1.022;exitDx=0;exitDy=0;exitPerimeter=0;" edge="1" parent="1" source="JBllpMUSSV6mAoZpoI0Q-7" target="JBllpMUSSV6mAoZpoI0Q-42">
          <mxGeometry width="50" height="50" relative="1" as="geometry">
            <mxPoint x="520" y="260" as="sourcePoint" />
            <mxPoint x="630" y="320" as="targetPoint" />
          </mxGeometry>
        </mxCell>
        <mxCell id="JBllpMUSSV6mAoZpoI0Q-50" value="&lt;span style=&quot;font-size: 16px;&quot;&gt;产生&lt;/span&gt;" style="rhombus;whiteSpace=wrap;html=1;" vertex="1" parent="1">
          <mxGeometry x="410" y="100" width="80" height="60" as="geometry" />
        </mxCell>
        <mxCell id="JBllpMUSSV6mAoZpoI0Q-51" value="" style="endArrow=none;html=1;rounded=0;entryX=0.5;entryY=1;entryDx=0;entryDy=0;exitX=0;exitY=0;exitDx=0;exitDy=0;" edge="1" parent="1" source="JBllpMUSSV6mAoZpoI0Q-7" target="JBllpMUSSV6mAoZpoI0Q-50">
          <mxGeometry width="50" height="50" relative="1" as="geometry">
            <mxPoint x="450" y="210" as="sourcePoint" />
            <mxPoint x="500" y="160" as="targetPoint" />
          </mxGeometry>
        </mxCell>
        <mxCell id="JBllpMUSSV6mAoZpoI0Q-52" value="" style="endArrow=none;html=1;rounded=0;entryX=0.5;entryY=1;entryDx=0;entryDy=0;exitX=0.5;exitY=0;exitDx=0;exitDy=0;" edge="1" parent="1" source="JBllpMUSSV6mAoZpoI0Q-50" target="JBllpMUSSV6mAoZpoI0Q-2">
          <mxGeometry width="50" height="50" relative="1" as="geometry">
            <mxPoint x="448.95" y="110" as="sourcePoint" />
            <mxPoint x="448.95" y="70" as="targetPoint" />
          </mxGeometry>
        </mxCell>
        <mxCell id="JBllpMUSSV6mAoZpoI0Q-54" value="&lt;p class=&quot;MsoNormal&quot;&gt;&lt;font face=&quot;Helvetica&quot; style=&quot;font-size: 16px;&quot;&gt;三色灯状态&lt;/font&gt;&lt;/p&gt;" style="ellipse;whiteSpace=wrap;html=1;" vertex="1" parent="1">
          <mxGeometry x="350" y="-160" width="90" height="40" as="geometry" />
        </mxCell>
        <mxCell id="JBllpMUSSV6mAoZpoI0Q-55" value="&lt;p class=&quot;MsoNormal&quot;&gt;&lt;font face=&quot;Helvetica&quot; style=&quot;font-size: 16px;&quot;&gt;人体状态&lt;/font&gt;&lt;/p&gt;" style="ellipse;whiteSpace=wrap;html=1;" vertex="1" parent="1">
          <mxGeometry x="270" y="-120" width="80" height="40" as="geometry" />
        </mxCell>
        <mxCell id="JBllpMUSSV6mAoZpoI0Q-56" value="&lt;p class=&quot;MsoNormal&quot;&gt;&lt;font face=&quot;Helvetica&quot; style=&quot;font-size: 16px;&quot;&gt;温度值&lt;/font&gt;&lt;/p&gt;" style="ellipse;whiteSpace=wrap;html=1;" vertex="1" parent="1">
          <mxGeometry x="510" y="-150" width="80" height="40" as="geometry" />
        </mxCell>
        <mxCell id="JBllpMUSSV6mAoZpoI0Q-57" value="&lt;p class=&quot;MsoNormal&quot;&gt;&lt;font face=&quot;Helvetica&quot; style=&quot;font-size: 16px;&quot;&gt;湿度值&lt;/font&gt;&lt;/p&gt;" style="ellipse;whiteSpace=wrap;html=1;" vertex="1" parent="1">
          <mxGeometry x="570" y="-100" width="80" height="40" as="geometry" />
        </mxCell>
        <mxCell id="JBllpMUSSV6mAoZpoI0Q-58" value="&lt;p class=&quot;MsoNormal&quot;&gt;&lt;font face=&quot;Helvetica&quot; style=&quot;font-size: 16px;&quot;&gt;所属产品编号&lt;/font&gt;&lt;/p&gt;" style="ellipse;whiteSpace=wrap;html=1;" vertex="1" parent="1">
          <mxGeometry x="210" y="-70" width="120" height="40" as="geometry" />
        </mxCell>
        <mxCell id="JBllpMUSSV6mAoZpoI0Q-59" value="&lt;p class=&quot;MsoNormal&quot;&gt;&lt;font face=&quot;Helvetica&quot; style=&quot;font-size: 16px;&quot;&gt;火焰状态&lt;/font&gt;&lt;/p&gt;" style="ellipse;whiteSpace=wrap;html=1;" vertex="1" parent="1">
          <mxGeometry x="440" y="-180" width="80" height="40" as="geometry" />
        </mxCell>
        <mxCell id="JBllpMUSSV6mAoZpoI0Q-60" value="&lt;p class=&quot;MsoNormal&quot;&gt;&lt;font face=&quot;Helvetica&quot; style=&quot;font-size: 16px;&quot;&gt;蜂鸣器状态&lt;/font&gt;&lt;/p&gt;" style="ellipse;whiteSpace=wrap;html=1;" vertex="1" parent="1">
          <mxGeometry x="590" y="-50" width="100" height="40" as="geometry" />
        </mxCell>
        <mxCell id="JBllpMUSSV6mAoZpoI0Q-61" value="&lt;p class=&quot;MsoNormal&quot;&gt;&lt;font face=&quot;Helvetica&quot; style=&quot;font-size: 16px;&quot;&gt;所属产品类型&lt;/font&gt;&lt;/p&gt;" style="ellipse;whiteSpace=wrap;html=1;" vertex="1" parent="1">
          <mxGeometry x="190" y="-10" width="120" height="40" as="geometry" />
        </mxCell>
        <mxCell id="JBllpMUSSV6mAoZpoI0Q-62" value="&lt;p class=&quot;MsoNormal&quot;&gt;&lt;font face=&quot;Helvetica&quot; style=&quot;font-size: 16px;&quot;&gt;光照强度&lt;/font&gt;&lt;/p&gt;" style="ellipse;whiteSpace=wrap;html=1;" vertex="1" parent="1">
          <mxGeometry x="610" width="80" height="40" as="geometry" />
        </mxCell>
        <mxCell id="JBllpMUSSV6mAoZpoI0Q-63" value="&lt;p class=&quot;MsoNormal&quot;&gt;&lt;font face=&quot;Helvetica&quot; style=&quot;font-size: 16px;&quot;&gt;序号&lt;/font&gt;&lt;/p&gt;" style="ellipse;whiteSpace=wrap;html=1;" vertex="1" parent="1">
          <mxGeometry x="230" y="50" width="80" height="40" as="geometry" />
        </mxCell>
        <mxCell id="JBllpMUSSV6mAoZpoI0Q-64" value="&lt;p class=&quot;MsoNormal&quot;&gt;&lt;font style=&quot;font-size: 16px;&quot;&gt;当前时间&lt;/font&gt;&lt;/p&gt;" style="ellipse;whiteSpace=wrap;html=1;" vertex="1" parent="1">
          <mxGeometry x="625" y="50" width="80" height="40" as="geometry" />
        </mxCell>
        <mxCell id="JBllpMUSSV6mAoZpoI0Q-65" value="" style="endArrow=none;html=1;rounded=0;exitX=1;exitY=0.5;exitDx=0;exitDy=0;entryX=0;entryY=1;entryDx=0;entryDy=0;" edge="1" parent="1" source="JBllpMUSSV6mAoZpoI0Q-63" target="JBllpMUSSV6mAoZpoI0Q-2">
          <mxGeometry width="50" height="50" relative="1" as="geometry">
            <mxPoint x="340" y="70" as="sourcePoint" />
            <mxPoint x="390" y="20" as="targetPoint" />
          </mxGeometry>
        </mxCell>
        <mxCell id="JBllpMUSSV6mAoZpoI0Q-66" value="" style="endArrow=none;html=1;rounded=0;exitX=1;exitY=0.5;exitDx=0;exitDy=0;" edge="1" parent="1" source="JBllpMUSSV6mAoZpoI0Q-61">
          <mxGeometry width="50" height="50" relative="1" as="geometry">
            <mxPoint x="330" y="10" as="sourcePoint" />
            <mxPoint x="410" y="30" as="targetPoint" />
          </mxGeometry>
        </mxCell>
        <mxCell id="JBllpMUSSV6mAoZpoI0Q-67" value="" style="endArrow=none;html=1;rounded=0;exitX=0.988;exitY=0.755;exitDx=0;exitDy=0;exitPerimeter=0;entryX=0;entryY=0;entryDx=0;entryDy=0;" edge="1" parent="1" source="JBllpMUSSV6mAoZpoI0Q-58" target="JBllpMUSSV6mAoZpoI0Q-2">
          <mxGeometry width="50" height="50" relative="1" as="geometry">
            <mxPoint x="360" y="-30" as="sourcePoint" />
            <mxPoint x="460" y="-10" as="targetPoint" />
          </mxGeometry>
        </mxCell>
        <mxCell id="JBllpMUSSV6mAoZpoI0Q-68" value="" style="endArrow=none;html=1;rounded=0;exitX=1;exitY=1;exitDx=0;exitDy=0;entryX=0.127;entryY=-0.045;entryDx=0;entryDy=0;entryPerimeter=0;" edge="1" parent="1" source="JBllpMUSSV6mAoZpoI0Q-55" target="JBllpMUSSV6mAoZpoI0Q-2">
          <mxGeometry width="50" height="50" relative="1" as="geometry">
            <mxPoint x="390" y="-50" as="sourcePoint" />
            <mxPoint x="490" y="-30" as="targetPoint" />
          </mxGeometry>
        </mxCell>
        <mxCell id="JBllpMUSSV6mAoZpoI0Q-69" value="" style="endArrow=none;html=1;rounded=0;exitX=0.644;exitY=1.026;exitDx=0;exitDy=0;exitPerimeter=0;entryX=0.25;entryY=0;entryDx=0;entryDy=0;" edge="1" parent="1" source="JBllpMUSSV6mAoZpoI0Q-54" target="JBllpMUSSV6mAoZpoI0Q-2">
          <mxGeometry width="50" height="50" relative="1" as="geometry">
            <mxPoint x="420" y="-90" as="sourcePoint" />
            <mxPoint x="520" y="-70" as="targetPoint" />
          </mxGeometry>
        </mxCell>
        <mxCell id="JBllpMUSSV6mAoZpoI0Q-70" value="" style="endArrow=none;html=1;rounded=0;exitX=0.286;exitY=0.895;exitDx=0;exitDy=0;exitPerimeter=0;entryX=0.5;entryY=0;entryDx=0;entryDy=0;" edge="1" parent="1" source="JBllpMUSSV6mAoZpoI0Q-59" target="JBllpMUSSV6mAoZpoI0Q-2">
          <mxGeometry width="50" height="50" relative="1" as="geometry">
            <mxPoint x="450" y="-100" as="sourcePoint" />
            <mxPoint x="550" y="-80" as="targetPoint" />
          </mxGeometry>
        </mxCell>
        <mxCell id="JBllpMUSSV6mAoZpoI0Q-71" value="" style="endArrow=none;html=1;rounded=0;exitX=0;exitY=1;exitDx=0;exitDy=0;entryX=0.653;entryY=-0.045;entryDx=0;entryDy=0;entryPerimeter=0;" edge="1" parent="1" source="JBllpMUSSV6mAoZpoI0Q-56" target="JBllpMUSSV6mAoZpoI0Q-2">
          <mxGeometry width="50" height="50" relative="1" as="geometry">
            <mxPoint x="494" y="-60" as="sourcePoint" />
            <mxPoint x="594" y="-40" as="targetPoint" />
          </mxGeometry>
        </mxCell>
        <mxCell id="JBllpMUSSV6mAoZpoI0Q-72" value="" style="endArrow=none;html=1;rounded=0;exitX=0;exitY=0.5;exitDx=0;exitDy=0;entryX=0.864;entryY=0.018;entryDx=0;entryDy=0;entryPerimeter=0;" edge="1" parent="1" source="JBllpMUSSV6mAoZpoI0Q-57" target="JBllpMUSSV6mAoZpoI0Q-2">
          <mxGeometry width="50" height="50" relative="1" as="geometry">
            <mxPoint x="532" y="-106" as="sourcePoint" />
            <mxPoint x="476" y="18" as="targetPoint" />
          </mxGeometry>
        </mxCell>
        <mxCell id="JBllpMUSSV6mAoZpoI0Q-73" value="" style="endArrow=none;html=1;rounded=0;exitX=0;exitY=0.5;exitDx=0;exitDy=0;entryX=1;entryY=0.25;entryDx=0;entryDy=0;" edge="1" parent="1" source="JBllpMUSSV6mAoZpoI0Q-60" target="JBllpMUSSV6mAoZpoI0Q-2">
          <mxGeometry width="50" height="50" relative="1" as="geometry">
            <mxPoint x="580" y="-70" as="sourcePoint" />
            <mxPoint x="540" as="targetPoint" />
          </mxGeometry>
        </mxCell>
        <mxCell id="JBllpMUSSV6mAoZpoI0Q-74" value="" style="endArrow=none;html=1;rounded=0;exitX=0;exitY=0.5;exitDx=0;exitDy=0;entryX=1;entryY=0.5;entryDx=0;entryDy=0;" edge="1" parent="1" source="JBllpMUSSV6mAoZpoI0Q-62" target="JBllpMUSSV6mAoZpoI0Q-2">
          <mxGeometry width="50" height="50" relative="1" as="geometry">
            <mxPoint x="600" y="-20" as="sourcePoint" />
            <mxPoint x="504" y="30" as="targetPoint" />
          </mxGeometry>
        </mxCell>
        <mxCell id="JBllpMUSSV6mAoZpoI0Q-75" value="" style="endArrow=none;html=1;rounded=0;exitX=0;exitY=0.25;exitDx=0;exitDy=0;entryX=1;entryY=1;entryDx=0;entryDy=0;exitPerimeter=0;" edge="1" parent="1" source="JBllpMUSSV6mAoZpoI0Q-64" target="JBllpMUSSV6mAoZpoI0Q-2">
          <mxGeometry width="50" height="50" relative="1" as="geometry">
            <mxPoint x="620" y="30" as="sourcePoint" />
            <mxPoint x="504" y="40" as="targetPoint" />
          </mxGeometry>
        </mxCell>
        <mxCell id="JBllpMUSSV6mAoZpoI0Q-77" value="&lt;span style=&quot;font-size: 16px;&quot;&gt;触发&lt;/span&gt;" style="rhombus;whiteSpace=wrap;html=1;" vertex="1" parent="1">
          <mxGeometry x="510" y="350" width="80" height="60" as="geometry" />
        </mxCell>
        <mxCell id="JBllpMUSSV6mAoZpoI0Q-78" value="" style="endArrow=none;html=1;rounded=0;exitX=0.5;exitY=0;exitDx=0;exitDy=0;entryX=0;entryY=1;entryDx=0;entryDy=0;" edge="1" parent="1" source="JBllpMUSSV6mAoZpoI0Q-77" target="JBllpMUSSV6mAoZpoI0Q-7">
          <mxGeometry width="50" height="50" relative="1" as="geometry">
            <mxPoint x="480" y="330" as="sourcePoint" />
            <mxPoint x="530" y="280" as="targetPoint" />
          </mxGeometry>
        </mxCell>
        <mxCell id="JBllpMUSSV6mAoZpoI0Q-79" value="" style="endArrow=none;html=1;rounded=0;exitX=0;exitY=0.25;exitDx=0;exitDy=0;entryX=0.5;entryY=1;entryDx=0;entryDy=0;" edge="1" parent="1" source="JBllpMUSSV6mAoZpoI0Q-3" target="JBllpMUSSV6mAoZpoI0Q-77">
          <mxGeometry width="50" height="50" relative="1" as="geometry">
            <mxPoint x="630" y="530" as="sourcePoint" />
            <mxPoint x="560" y="430" as="targetPoint" />
          </mxGeometry>
        </mxCell>
        <mxCell id="JBllpMUSSV6mAoZpoI0Q-80" value="&lt;p class=&quot;MsoNormal&quot;&gt;&lt;font face=&quot;Helvetica&quot; style=&quot;font-size: 16px;&quot;&gt;所属产品类型&lt;/font&gt;&lt;/p&gt;" style="ellipse;whiteSpace=wrap;html=1;" vertex="1" parent="1">
          <mxGeometry x="790" y="565" width="120" height="40" as="geometry" />
        </mxCell>
        <mxCell id="JBllpMUSSV6mAoZpoI0Q-81" value="&lt;p class=&quot;MsoNormal&quot;&gt;&lt;span style=&quot;color: rgb(0, 0, 0);&quot;&gt;&lt;font face=&quot;Helvetica&quot; style=&quot;font-size: 16px;&quot;&gt;报警类型&lt;/font&gt;&lt;/span&gt;&lt;/p&gt;" style="ellipse;whiteSpace=wrap;html=1;" vertex="1" parent="1">
          <mxGeometry x="750" y="620" width="80" height="40" as="geometry" />
        </mxCell>
        <mxCell id="JBllpMUSSV6mAoZpoI0Q-82" value="&lt;p class=&quot;MsoNormal&quot;&gt;&lt;font face=&quot;Helvetica&quot; style=&quot;font-size: 16px;&quot;&gt;报警序号&lt;/font&gt;&lt;/p&gt;" style="ellipse;whiteSpace=wrap;html=1;" vertex="1" parent="1">
          <mxGeometry x="780" y="450" width="80" height="40" as="geometry" />
        </mxCell>
        <mxCell id="JBllpMUSSV6mAoZpoI0Q-83" value="&lt;p class=&quot;MsoNormal&quot;&gt;&lt;font face=&quot;Helvetica&quot; style=&quot;font-size: 16px;&quot;&gt;所属产品编号&lt;/font&gt;&lt;/p&gt;" style="ellipse;whiteSpace=wrap;html=1;" vertex="1" parent="1">
          <mxGeometry x="820" y="500" width="110" height="40" as="geometry" />
        </mxCell>
        <mxCell id="JBllpMUSSV6mAoZpoI0Q-84" value="&lt;p class=&quot;MsoNormal&quot;&gt;&lt;font face=&quot;Helvetica&quot; style=&quot;font-size: 16px;&quot;&gt;报警值&lt;/font&gt;&lt;/p&gt;" style="ellipse;whiteSpace=wrap;html=1;" vertex="1" parent="1">
          <mxGeometry x="590" y="650" width="80" height="40" as="geometry" />
        </mxCell>
        <mxCell id="JBllpMUSSV6mAoZpoI0Q-85" value="&lt;p class=&quot;MsoNormal&quot;&gt;&lt;font face=&quot;Helvetica&quot; style=&quot;font-size: 16px;&quot;&gt;报警时间&lt;/font&gt;&lt;/p&gt;" style="ellipse;whiteSpace=wrap;html=1;" vertex="1" parent="1">
          <mxGeometry x="670" y="660" width="80" height="40" as="geometry" />
        </mxCell>
        <mxCell id="JBllpMUSSV6mAoZpoI0Q-86" value="&lt;p class=&quot;MsoNormal&quot;&gt;&lt;font style=&quot;font-size: 16px;&quot;&gt;报警状态&lt;/font&gt;&lt;/p&gt;" style="ellipse;whiteSpace=wrap;html=1;" vertex="1" parent="1">
          <mxGeometry x="730" y="400" width="80" height="40" as="geometry" />
        </mxCell>
        <mxCell id="JBllpMUSSV6mAoZpoI0Q-88" value="" style="endArrow=none;html=1;rounded=0;exitX=0.5;exitY=0;exitDx=0;exitDy=0;entryX=0;entryY=0.75;entryDx=0;entryDy=0;entryPerimeter=0;" edge="1" parent="1" source="JBllpMUSSV6mAoZpoI0Q-3" target="JBllpMUSSV6mAoZpoI0Q-86">
          <mxGeometry width="50" height="50" relative="1" as="geometry">
            <mxPoint x="655" y="460" as="sourcePoint" />
            <mxPoint x="705" y="410" as="targetPoint" />
          </mxGeometry>
        </mxCell>
        <mxCell id="JBllpMUSSV6mAoZpoI0Q-89" value="" style="endArrow=none;html=1;rounded=0;exitX=1;exitY=0.25;exitDx=0;exitDy=0;entryX=-0.012;entryY=0.326;entryDx=0;entryDy=0;entryPerimeter=0;" edge="1" parent="1" source="JBllpMUSSV6mAoZpoI0Q-3" target="JBllpMUSSV6mAoZpoI0Q-82">
          <mxGeometry width="50" height="50" relative="1" as="geometry">
            <mxPoint x="690" y="480" as="sourcePoint" />
            <mxPoint x="785" y="440" as="targetPoint" />
          </mxGeometry>
        </mxCell>
        <mxCell id="JBllpMUSSV6mAoZpoI0Q-90" value="" style="endArrow=none;html=1;rounded=0;exitX=1;exitY=0.5;exitDx=0;exitDy=0;entryX=0;entryY=0;entryDx=0;entryDy=0;" edge="1" parent="1" source="JBllpMUSSV6mAoZpoI0Q-3" target="JBllpMUSSV6mAoZpoI0Q-83">
          <mxGeometry width="50" height="50" relative="1" as="geometry">
            <mxPoint x="690" y="494.18" as="sourcePoint" />
            <mxPoint x="821.2025020771409" y="520.0039911435707" as="targetPoint" />
          </mxGeometry>
        </mxCell>
        <mxCell id="JBllpMUSSV6mAoZpoI0Q-92" value="" style="endArrow=none;html=1;rounded=0;exitX=1;exitY=1;exitDx=0;exitDy=0;entryX=0.295;entryY=0.003;entryDx=0;entryDy=0;entryPerimeter=0;" edge="1" parent="1" source="JBllpMUSSV6mAoZpoI0Q-3" target="JBllpMUSSV6mAoZpoI0Q-80">
          <mxGeometry width="50" height="50" relative="1" as="geometry">
            <mxPoint x="685" y="500" as="sourcePoint" />
            <mxPoint x="836" y="516" as="targetPoint" />
          </mxGeometry>
        </mxCell>
        <mxCell id="JBllpMUSSV6mAoZpoI0Q-93" value="" style="endArrow=none;html=1;rounded=0;exitX=0.75;exitY=1;exitDx=0;exitDy=0;entryX=0.32;entryY=-0.063;entryDx=0;entryDy=0;entryPerimeter=0;" edge="1" parent="1" source="JBllpMUSSV6mAoZpoI0Q-3" target="JBllpMUSSV6mAoZpoI0Q-81">
          <mxGeometry width="50" height="50" relative="1" as="geometry">
            <mxPoint x="628" y="577" as="sourcePoint" />
            <mxPoint x="732" y="560" as="targetPoint" />
          </mxGeometry>
        </mxCell>
        <mxCell id="JBllpMUSSV6mAoZpoI0Q-94" value="" style="endArrow=none;html=1;rounded=0;exitX=0.5;exitY=1;exitDx=0;exitDy=0;entryX=0.5;entryY=0;entryDx=0;entryDy=0;" edge="1" parent="1" source="JBllpMUSSV6mAoZpoI0Q-3" target="JBllpMUSSV6mAoZpoI0Q-85">
          <mxGeometry width="50" height="50" relative="1" as="geometry">
            <mxPoint x="665" y="520" as="sourcePoint" />
            <mxPoint x="786" y="627" as="targetPoint" />
          </mxGeometry>
        </mxCell>
        <mxCell id="JBllpMUSSV6mAoZpoI0Q-95" value="" style="endArrow=none;html=1;rounded=0;exitX=0.25;exitY=1;exitDx=0;exitDy=0;entryX=0.33;entryY=0.105;entryDx=0;entryDy=0;entryPerimeter=0;" edge="1" parent="1" source="JBllpMUSSV6mAoZpoI0Q-3" target="JBllpMUSSV6mAoZpoI0Q-84">
          <mxGeometry width="50" height="50" relative="1" as="geometry">
            <mxPoint x="605" y="530" as="sourcePoint" />
            <mxPoint x="670" y="680" as="targetPoint" />
          </mxGeometry>
        </mxCell>
        <mxCell id="JBllpMUSSV6mAoZpoI0Q-97" value="&lt;font style=&quot;font-size: 16px;&quot;&gt;管理&lt;/font&gt;" style="rhombus;whiteSpace=wrap;html=1;" vertex="1" parent="1">
          <mxGeometry x="110" y="400" width="80" height="60" as="geometry" />
        </mxCell>
        <mxCell id="JBllpMUSSV6mAoZpoI0Q-98" value="&lt;font style=&quot;font-size: 16px;&quot;&gt;关联&lt;/font&gt;" style="rhombus;whiteSpace=wrap;html=1;" vertex="1" parent="1">
          <mxGeometry x="230" y="390" width="80" height="60" as="geometry" />
        </mxCell>
        <mxCell id="JBllpMUSSV6mAoZpoI0Q-99" value="&lt;font style=&quot;font-size: 16px;&quot;&gt;关联&lt;/font&gt;" style="rhombus;whiteSpace=wrap;html=1;" vertex="1" parent="1">
          <mxGeometry x="340" y="430" width="80" height="60" as="geometry" />
        </mxCell>
        <mxCell id="JBllpMUSSV6mAoZpoI0Q-100" value="" style="endArrow=none;html=1;rounded=0;entryX=1;entryY=1;entryDx=0;entryDy=0;exitX=0.5;exitY=0;exitDx=0;exitDy=0;" edge="1" parent="1" source="JBllpMUSSV6mAoZpoI0Q-98" target="JBllpMUSSV6mAoZpoI0Q-6">
          <mxGeometry width="50" height="50" relative="1" as="geometry">
            <mxPoint x="170" y="500" as="sourcePoint" />
            <mxPoint x="220" y="450" as="targetPoint" />
          </mxGeometry>
        </mxCell>
        <mxCell id="JBllpMUSSV6mAoZpoI0Q-101" value="" style="endArrow=none;html=1;rounded=0;entryX=1;entryY=1;entryDx=0;entryDy=0;exitX=0.5;exitY=0;exitDx=0;exitDy=0;" edge="1" parent="1" source="JBllpMUSSV6mAoZpoI0Q-99" target="JBllpMUSSV6mAoZpoI0Q-6">
          <mxGeometry width="50" height="50" relative="1" as="geometry">
            <mxPoint x="170" y="500" as="sourcePoint" />
            <mxPoint x="220" y="450" as="targetPoint" />
          </mxGeometry>
        </mxCell>
        <mxCell id="JBllpMUSSV6mAoZpoI0Q-102" value="" style="endArrow=none;html=1;rounded=0;exitX=0.5;exitY=0;exitDx=0;exitDy=0;" edge="1" parent="1" source="JBllpMUSSV6mAoZpoI0Q-97">
          <mxGeometry width="50" height="50" relative="1" as="geometry">
            <mxPoint x="170" y="500" as="sourcePoint" />
            <mxPoint x="220" y="330" as="targetPoint" />
          </mxGeometry>
        </mxCell>
        <mxCell id="JBllpMUSSV6mAoZpoI0Q-103" value="" style="endArrow=none;html=1;rounded=0;entryX=0.5;entryY=1;entryDx=0;entryDy=0;exitX=1;exitY=0;exitDx=0;exitDy=0;" edge="1" parent="1" source="JBllpMUSSV6mAoZpoI0Q-5" target="JBllpMUSSV6mAoZpoI0Q-97">
          <mxGeometry width="50" height="50" relative="1" as="geometry">
            <mxPoint x="70" y="530" as="sourcePoint" />
            <mxPoint x="120" y="480" as="targetPoint" />
          </mxGeometry>
        </mxCell>
        <mxCell id="JBllpMUSSV6mAoZpoI0Q-106" value="" style="endArrow=none;html=1;rounded=0;entryX=0.5;entryY=1;entryDx=0;entryDy=0;exitX=0.375;exitY=0;exitDx=0;exitDy=0;exitPerimeter=0;" edge="1" parent="1" source="JBllpMUSSV6mAoZpoI0Q-4" target="JBllpMUSSV6mAoZpoI0Q-98">
          <mxGeometry width="50" height="50" relative="1" as="geometry">
            <mxPoint x="180" y="590" as="sourcePoint" />
            <mxPoint x="140" y="500" as="targetPoint" />
          </mxGeometry>
        </mxCell>
        <mxCell id="JBllpMUSSV6mAoZpoI0Q-108" value="" style="endArrow=none;html=1;rounded=0;entryX=0.5;entryY=1;entryDx=0;entryDy=0;exitX=0;exitY=0;exitDx=0;exitDy=0;" edge="1" parent="1" source="JBllpMUSSV6mAoZpoI0Q-1" target="JBllpMUSSV6mAoZpoI0Q-99">
          <mxGeometry width="50" height="50" relative="1" as="geometry">
            <mxPoint x="120" y="625" as="sourcePoint" />
            <mxPoint x="170" y="575" as="targetPoint" />
          </mxGeometry>
        </mxCell>
        <mxCell id="JBllpMUSSV6mAoZpoI0Q-118" value="&lt;p class=&quot;MsoNormal&quot;&gt;&lt;font face=&quot;Helvetica&quot; style=&quot;font-size: 16px;&quot;&gt;日志序号&lt;/font&gt;&lt;/p&gt;" style="ellipse;whiteSpace=wrap;html=1;" vertex="1" parent="1">
          <mxGeometry x="100" y="540" width="80" height="40" as="geometry" />
        </mxCell>
        <mxCell id="JBllpMUSSV6mAoZpoI0Q-119" value="&lt;p class=&quot;MsoNormal&quot;&gt;&lt;font face=&quot;Helvetica&quot; style=&quot;font-size: 16px;&quot;&gt;用户编号&lt;/font&gt;&lt;/p&gt;" style="ellipse;whiteSpace=wrap;html=1;" vertex="1" parent="1">
          <mxGeometry x="290" y="670" width="80" height="40" as="geometry" />
        </mxCell>
        <mxCell id="JBllpMUSSV6mAoZpoI0Q-120" value="&lt;p class=&quot;MsoNormal&quot;&gt;&lt;font face=&quot;Helvetica&quot; style=&quot;font-size: 16px;&quot;&gt;操作信息&lt;/font&gt;&lt;/p&gt;" style="ellipse;whiteSpace=wrap;html=1;" vertex="1" parent="1">
          <mxGeometry x="210" y="710" width="80" height="40" as="geometry" />
        </mxCell>
        <mxCell id="JBllpMUSSV6mAoZpoI0Q-121" value="&lt;p class=&quot;MsoNormal&quot;&gt;&lt;font face=&quot;Helvetica&quot; style=&quot;font-size: 16px;&quot;&gt;登录用户名&lt;/font&gt;&lt;/p&gt;" style="ellipse;whiteSpace=wrap;html=1;" vertex="1" parent="1">
          <mxGeometry x="90" y="605" width="95" height="40" as="geometry" />
        </mxCell>
        <mxCell id="JBllpMUSSV6mAoZpoI0Q-122" value="&lt;p class=&quot;MsoNormal&quot;&gt;&lt;font face=&quot;Helvetica&quot; style=&quot;font-size: 16px;&quot;&gt;操作时间&lt;/font&gt;&lt;/p&gt;" style="ellipse;whiteSpace=wrap;html=1;" vertex="1" parent="1">
          <mxGeometry x="340" y="620" width="80" height="40" as="geometry" />
        </mxCell>
        <mxCell id="JBllpMUSSV6mAoZpoI0Q-123" value="&lt;p class=&quot;MsoNormal&quot;&gt;&lt;font face=&quot;Helvetica&quot; style=&quot;font-size: 16px;&quot;&gt;操作状态&lt;/font&gt;&lt;/p&gt;" style="ellipse;whiteSpace=wrap;html=1;" vertex="1" parent="1">
          <mxGeometry x="140" y="670" width="80" height="40" as="geometry" />
        </mxCell>
        <mxCell id="JBllpMUSSV6mAoZpoI0Q-124" value="&lt;p class=&quot;MsoNormal&quot;&gt;&lt;font face=&quot;Helvetica&quot; style=&quot;font-size: 16px;&quot;&gt;用户编号&lt;/font&gt;&lt;/p&gt;" style="ellipse;whiteSpace=wrap;html=1;" vertex="1" parent="1">
          <mxGeometry x="520" y="610" width="80" height="40" as="geometry" />
        </mxCell>
        <mxCell id="JBllpMUSSV6mAoZpoI0Q-125" value="&lt;p class=&quot;MsoNormal&quot;&gt;&lt;font face=&quot;Helvetica&quot; style=&quot;font-size: 16px;&quot;&gt;操作类型&lt;/font&gt;&lt;/p&gt;" style="ellipse;whiteSpace=wrap;html=1;" vertex="1" parent="1">
          <mxGeometry x="515" y="510" width="80" height="40" as="geometry" />
        </mxCell>
        <mxCell id="JBllpMUSSV6mAoZpoI0Q-126" value="&lt;p class=&quot;MsoNormal&quot;&gt;&lt;span style=&quot;color: rgb(0, 0, 0);&quot;&gt;&lt;font face=&quot;Helvetica&quot; style=&quot;font-size: 16px;&quot;&gt;操作时间&lt;/font&gt;&lt;/span&gt;&lt;/p&gt;" style="ellipse;whiteSpace=wrap;html=1;" vertex="1" parent="1">
          <mxGeometry x="380" y="700" width="80" height="40" as="geometry" />
        </mxCell>
        <mxCell id="JBllpMUSSV6mAoZpoI0Q-127" value="&lt;p class=&quot;MsoNormal&quot;&gt;&lt;font style=&quot;font-size: 16px;&quot;&gt;操作状态&lt;/font&gt;&lt;/p&gt;" style="ellipse;whiteSpace=wrap;html=1;" vertex="1" parent="1">
          <mxGeometry x="470" y="680" width="80" height="40" as="geometry" />
        </mxCell>
        <mxCell id="JBllpMUSSV6mAoZpoI0Q-128" value="&lt;p class=&quot;MsoNormal&quot;&gt;&lt;font face=&quot;Helvetica&quot; style=&quot;font-size: 16px;&quot;&gt;日志序号&lt;/font&gt;&lt;/p&gt;" style="ellipse;whiteSpace=wrap;html=1;" vertex="1" parent="1">
          <mxGeometry x="450" y="460" width="80" height="40" as="geometry" />
        </mxCell>
        <mxCell id="JBllpMUSSV6mAoZpoI0Q-129" value="&lt;p class=&quot;MsoNormal&quot;&gt;&lt;font face=&quot;Helvetica&quot; style=&quot;font-size: 16px;&quot;&gt;菜单图标&lt;/font&gt;&lt;/p&gt;" style="ellipse;whiteSpace=wrap;html=1;" vertex="1" parent="1">
          <mxGeometry x="-20" y="620" width="80" height="40" as="geometry" />
        </mxCell>
        <mxCell id="JBllpMUSSV6mAoZpoI0Q-130" value="&lt;p class=&quot;MsoNormal&quot;&gt;&lt;font style=&quot;font-size: 16px;&quot;&gt;菜单状态&lt;/font&gt;&lt;/p&gt;" style="ellipse;whiteSpace=wrap;html=1;" vertex="1" parent="1">
          <mxGeometry x="-110" y="600" width="80" height="40" as="geometry" />
        </mxCell>
        <mxCell id="JBllpMUSSV6mAoZpoI0Q-131" value="&lt;p class=&quot;MsoNormal&quot;&gt;&lt;font style=&quot;font-size: 16px;&quot;&gt;菜单顺序&lt;/font&gt;&lt;/p&gt;" style="ellipse;whiteSpace=wrap;html=1;" vertex="1" parent="1">
          <mxGeometry x="-130" y="520" width="80" height="40" as="geometry" />
        </mxCell>
        <mxCell id="JBllpMUSSV6mAoZpoI0Q-132" value="&lt;p class=&quot;MsoNormal&quot;&gt;&lt;font face=&quot;Helvetica&quot; style=&quot;font-size: 16px;&quot;&gt;菜单名字&lt;/font&gt;&lt;/p&gt;" style="ellipse;whiteSpace=wrap;html=1;" vertex="1" parent="1">
          <mxGeometry x="-120" y="450" width="80" height="40" as="geometry" />
        </mxCell>
        <mxCell id="JBllpMUSSV6mAoZpoI0Q-133" value="&lt;p class=&quot;MsoNormal&quot;&gt;&lt;font face=&quot;Helvetica&quot; style=&quot;font-size: 16px;&quot;&gt;菜单序号&lt;/font&gt;&lt;/p&gt;" style="ellipse;whiteSpace=wrap;html=1;" vertex="1" parent="1">
          <mxGeometry x="-60" y="390" width="80" height="40" as="geometry" />
        </mxCell>
        <mxCell id="JBllpMUSSV6mAoZpoI0Q-134" value="" style="endArrow=none;html=1;rounded=0;exitX=0.25;exitY=0;exitDx=0;exitDy=0;entryX=0.026;entryY=0.734;entryDx=0;entryDy=0;entryPerimeter=0;" edge="1" parent="1" source="JBllpMUSSV6mAoZpoI0Q-1" target="JBllpMUSSV6mAoZpoI0Q-128">
          <mxGeometry width="50" height="50" relative="1" as="geometry">
            <mxPoint x="510" y="510" as="sourcePoint" />
            <mxPoint x="490" y="510" as="targetPoint" />
          </mxGeometry>
        </mxCell>
        <mxCell id="JBllpMUSSV6mAoZpoI0Q-135" value="" style="endArrow=none;html=1;rounded=0;exitX=0.625;exitY=0;exitDx=0;exitDy=0;entryX=0;entryY=0.5;entryDx=0;entryDy=0;exitPerimeter=0;" edge="1" parent="1" source="JBllpMUSSV6mAoZpoI0Q-1" target="JBllpMUSSV6mAoZpoI0Q-125">
          <mxGeometry width="50" height="50" relative="1" as="geometry">
            <mxPoint x="450" y="570" as="sourcePoint" />
            <mxPoint x="462" y="499" as="targetPoint" />
          </mxGeometry>
        </mxCell>
        <mxCell id="JBllpMUSSV6mAoZpoI0Q-136" value="" style="endArrow=none;html=1;rounded=0;exitX=0.75;exitY=1;exitDx=0;exitDy=0;entryX=0.375;entryY=0;entryDx=0;entryDy=0;entryPerimeter=0;" edge="1" parent="1" source="JBllpMUSSV6mAoZpoI0Q-1" target="JBllpMUSSV6mAoZpoI0Q-124">
          <mxGeometry width="50" height="50" relative="1" as="geometry">
            <mxPoint x="480" y="570" as="sourcePoint" />
            <mxPoint x="525" y="540" as="targetPoint" />
          </mxGeometry>
        </mxCell>
        <mxCell id="JBllpMUSSV6mAoZpoI0Q-137" value="" style="endArrow=none;html=1;rounded=0;exitX=0.5;exitY=1;exitDx=0;exitDy=0;entryX=0.5;entryY=0;entryDx=0;entryDy=0;" edge="1" parent="1" source="JBllpMUSSV6mAoZpoI0Q-1" target="JBllpMUSSV6mAoZpoI0Q-127">
          <mxGeometry width="50" height="50" relative="1" as="geometry">
            <mxPoint x="490" y="610" as="sourcePoint" />
            <mxPoint x="470" y="780" as="targetPoint" />
          </mxGeometry>
        </mxCell>
        <mxCell id="JBllpMUSSV6mAoZpoI0Q-138" value="" style="endArrow=none;html=1;rounded=0;exitX=0.25;exitY=1;exitDx=0;exitDy=0;entryX=0.5;entryY=0;entryDx=0;entryDy=0;" edge="1" parent="1" source="JBllpMUSSV6mAoZpoI0Q-1" target="JBllpMUSSV6mAoZpoI0Q-126">
          <mxGeometry width="50" height="50" relative="1" as="geometry">
            <mxPoint x="470" y="610" as="sourcePoint" />
            <mxPoint x="530" y="790" as="targetPoint" />
          </mxGeometry>
        </mxCell>
        <mxCell id="JBllpMUSSV6mAoZpoI0Q-139" value="" style="endArrow=none;html=1;rounded=0;entryX=1;entryY=1;entryDx=0;entryDy=0;exitX=0.5;exitY=0;exitDx=0;exitDy=0;" edge="1" parent="1" source="JBllpMUSSV6mAoZpoI0Q-122" target="JBllpMUSSV6mAoZpoI0Q-4">
          <mxGeometry width="50" height="50" relative="1" as="geometry">
            <mxPoint x="290" y="605" as="sourcePoint" />
            <mxPoint x="340" y="555" as="targetPoint" />
          </mxGeometry>
        </mxCell>
        <mxCell id="JBllpMUSSV6mAoZpoI0Q-140" value="" style="endArrow=none;html=1;rounded=0;entryX=0.75;entryY=1;entryDx=0;entryDy=0;exitX=0.258;exitY=0.103;exitDx=0;exitDy=0;exitPerimeter=0;" edge="1" parent="1" source="JBllpMUSSV6mAoZpoI0Q-119" target="JBllpMUSSV6mAoZpoI0Q-4">
          <mxGeometry width="50" height="50" relative="1" as="geometry">
            <mxPoint x="400" y="660" as="sourcePoint" />
            <mxPoint x="325" y="560" as="targetPoint" />
          </mxGeometry>
        </mxCell>
        <mxCell id="JBllpMUSSV6mAoZpoI0Q-141" value="" style="endArrow=none;html=1;rounded=0;entryX=0.5;entryY=1;entryDx=0;entryDy=0;exitX=0.413;exitY=0.045;exitDx=0;exitDy=0;exitPerimeter=0;" edge="1" parent="1" source="JBllpMUSSV6mAoZpoI0Q-120" target="JBllpMUSSV6mAoZpoI0Q-4">
          <mxGeometry width="50" height="50" relative="1" as="geometry">
            <mxPoint x="364" y="734" as="sourcePoint" />
            <mxPoint x="305" y="560" as="targetPoint" />
          </mxGeometry>
        </mxCell>
        <mxCell id="JBllpMUSSV6mAoZpoI0Q-142" value="" style="endArrow=none;html=1;rounded=0;entryX=0.25;entryY=1;entryDx=0;entryDy=0;exitX=0.5;exitY=0;exitDx=0;exitDy=0;" edge="1" parent="1" source="JBllpMUSSV6mAoZpoI0Q-123" target="JBllpMUSSV6mAoZpoI0Q-4">
          <mxGeometry width="50" height="50" relative="1" as="geometry">
            <mxPoint x="313" y="762" as="sourcePoint" />
            <mxPoint x="285" y="560" as="targetPoint" />
          </mxGeometry>
        </mxCell>
        <mxCell id="JBllpMUSSV6mAoZpoI0Q-146" value="" style="endArrow=none;html=1;rounded=0;entryX=0.106;entryY=1.016;entryDx=0;entryDy=0;entryPerimeter=0;" edge="1" parent="1" source="JBllpMUSSV6mAoZpoI0Q-121" target="JBllpMUSSV6mAoZpoI0Q-4">
          <mxGeometry width="50" height="50" relative="1" as="geometry">
            <mxPoint x="240" y="780" as="sourcePoint" />
            <mxPoint x="265" y="560" as="targetPoint" />
          </mxGeometry>
        </mxCell>
        <mxCell id="JBllpMUSSV6mAoZpoI0Q-147" value="" style="endArrow=none;html=1;rounded=0;entryX=0;entryY=0.75;entryDx=0;entryDy=0;exitX=1;exitY=0;exitDx=0;exitDy=0;" edge="1" parent="1" source="JBllpMUSSV6mAoZpoI0Q-118" target="JBllpMUSSV6mAoZpoI0Q-4">
          <mxGeometry width="50" height="50" relative="1" as="geometry">
            <mxPoint x="170" y="731" as="sourcePoint" />
            <mxPoint x="230" y="550" as="targetPoint" />
          </mxGeometry>
        </mxCell>
        <mxCell id="JBllpMUSSV6mAoZpoI0Q-148" value="" style="endArrow=none;html=1;rounded=0;entryX=1;entryY=1;entryDx=0;entryDy=0;exitX=0.5;exitY=0;exitDx=0;exitDy=0;" edge="1" parent="1" source="JBllpMUSSV6mAoZpoI0Q-5" target="JBllpMUSSV6mAoZpoI0Q-133">
          <mxGeometry width="50" height="50" relative="1" as="geometry">
            <mxPoint x="510" y="510" as="sourcePoint" />
            <mxPoint x="560" y="460" as="targetPoint" />
          </mxGeometry>
        </mxCell>
        <mxCell id="JBllpMUSSV6mAoZpoI0Q-149" value="" style="endArrow=none;html=1;rounded=0;entryX=1;entryY=0.5;entryDx=0;entryDy=0;exitX=0;exitY=0;exitDx=0;exitDy=0;" edge="1" parent="1" source="JBllpMUSSV6mAoZpoI0Q-5" target="JBllpMUSSV6mAoZpoI0Q-132">
          <mxGeometry width="50" height="50" relative="1" as="geometry">
            <mxPoint x="70" y="530" as="sourcePoint" />
            <mxPoint x="38" y="444" as="targetPoint" />
          </mxGeometry>
        </mxCell>
        <mxCell id="JBllpMUSSV6mAoZpoI0Q-150" value="" style="endArrow=none;html=1;rounded=0;entryX=1;entryY=0;entryDx=0;entryDy=0;exitX=0;exitY=0.5;exitDx=0;exitDy=0;" edge="1" parent="1" source="JBllpMUSSV6mAoZpoI0Q-5" target="JBllpMUSSV6mAoZpoI0Q-131">
          <mxGeometry width="50" height="50" relative="1" as="geometry">
            <mxPoint x="10" y="540" as="sourcePoint" />
            <mxPoint x="-20" y="500" as="targetPoint" />
          </mxGeometry>
        </mxCell>
        <mxCell id="JBllpMUSSV6mAoZpoI0Q-152" value="" style="endArrow=none;html=1;rounded=0;entryX=0.5;entryY=0;entryDx=0;entryDy=0;exitX=0;exitY=1;exitDx=0;exitDy=0;" edge="1" parent="1" source="JBllpMUSSV6mAoZpoI0Q-5" target="JBllpMUSSV6mAoZpoI0Q-130">
          <mxGeometry width="50" height="50" relative="1" as="geometry">
            <mxPoint x="20" y="570" as="sourcePoint" />
            <mxPoint x="-42" y="561" as="targetPoint" />
          </mxGeometry>
        </mxCell>
        <mxCell id="JBllpMUSSV6mAoZpoI0Q-153" value="" style="endArrow=none;html=1;rounded=0;entryX=0.5;entryY=0;entryDx=0;entryDy=0;exitX=0.5;exitY=1;exitDx=0;exitDy=0;" edge="1" parent="1" source="JBllpMUSSV6mAoZpoI0Q-5" target="JBllpMUSSV6mAoZpoI0Q-129">
          <mxGeometry width="50" height="50" relative="1" as="geometry">
            <mxPoint x="30" y="570" as="sourcePoint" />
            <mxPoint x="-40" y="630" as="targetPoint" />
          </mxGeometry>
        </mxCell>
        <mxCell id="JBllpMUSSV6mAoZpoI0Q-155" value="&lt;font style=&quot;font-size: 16px;&quot;&gt;1&lt;/font&gt;" style="text;html=1;align=center;verticalAlign=middle;whiteSpace=wrap;rounded=0;" vertex="1" parent="1">
          <mxGeometry x="295" y="252" width="60" height="30" as="geometry" />
        </mxCell>
        <mxCell id="JBllpMUSSV6mAoZpoI0Q-158" value="&lt;span style=&quot;font-size: 16px;&quot;&gt;N&lt;/span&gt;" style="text;html=1;align=center;verticalAlign=middle;whiteSpace=wrap;rounded=0;" vertex="1" parent="1">
          <mxGeometry x="414" y="235" width="60" height="30" as="geometry" />
        </mxCell>
        <mxCell id="JBllpMUSSV6mAoZpoI0Q-160" value="&lt;span style=&quot;font-size: 16px;&quot;&gt;1&lt;/span&gt;" style="text;html=1;align=center;verticalAlign=middle;whiteSpace=wrap;rounded=0;" vertex="1" parent="1">
          <mxGeometry x="442" y="160" width="60" height="30" as="geometry" />
        </mxCell>
        <mxCell id="JBllpMUSSV6mAoZpoI0Q-161" value="&lt;span style=&quot;font-size: 16px;&quot;&gt;N&lt;/span&gt;" style="text;html=1;align=center;verticalAlign=middle;whiteSpace=wrap;rounded=0;" vertex="1" parent="1">
          <mxGeometry x="410" y="60" width="60" height="30" as="geometry" />
        </mxCell>
        <mxCell id="JBllpMUSSV6mAoZpoI0Q-164" value="&lt;span style=&quot;font-size: 16px;&quot;&gt;1&lt;/span&gt;" style="text;html=1;align=center;verticalAlign=middle;whiteSpace=wrap;rounded=0;" vertex="1" parent="1">
          <mxGeometry x="477" y="295" width="60" height="30" as="geometry" />
        </mxCell>
        <mxCell id="JBllpMUSSV6mAoZpoI0Q-165" value="&lt;span style=&quot;font-size: 16px;&quot;&gt;N&lt;/span&gt;" style="text;html=1;align=center;verticalAlign=middle;whiteSpace=wrap;rounded=0;" vertex="1" parent="1">
          <mxGeometry x="563" y="420" width="60" height="30" as="geometry" />
        </mxCell>
        <mxCell id="JBllpMUSSV6mAoZpoI0Q-166" value="&lt;span style=&quot;font-size: 16px;&quot;&gt;N&lt;/span&gt;" style="text;html=1;align=center;verticalAlign=middle;whiteSpace=wrap;rounded=0;" vertex="1" parent="1">
          <mxGeometry x="383.5" y="505" width="60" height="30" as="geometry" />
        </mxCell>
        <mxCell id="JBllpMUSSV6mAoZpoI0Q-168" value="&lt;span style=&quot;font-size: 16px;&quot;&gt;1&lt;/span&gt;" style="text;html=1;align=center;verticalAlign=middle;whiteSpace=wrap;rounded=0;" vertex="1" parent="1">
          <mxGeometry x="312" y="390" width="60" height="30" as="geometry" />
        </mxCell>
        <mxCell id="JBllpMUSSV6mAoZpoI0Q-169" value="&lt;span style=&quot;font-size: 16px;&quot;&gt;1&lt;/span&gt;" style="text;html=1;align=center;verticalAlign=middle;whiteSpace=wrap;rounded=0;" vertex="1" parent="1">
          <mxGeometry x="240" y="350" width="60" height="30" as="geometry" />
        </mxCell>
        <mxCell id="JBllpMUSSV6mAoZpoI0Q-170" value="&lt;span style=&quot;font-size: 16px;&quot;&gt;N&lt;/span&gt;" style="text;html=1;align=center;verticalAlign=middle;whiteSpace=wrap;rounded=0;" vertex="1" parent="1">
          <mxGeometry x="246" y="470" width="60" height="30" as="geometry" />
        </mxCell>
        <mxCell id="JBllpMUSSV6mAoZpoI0Q-171" value="&lt;span style=&quot;font-size: 16px;&quot;&gt;N&lt;/span&gt;" style="text;html=1;align=center;verticalAlign=middle;whiteSpace=wrap;rounded=0;" vertex="1" parent="1">
          <mxGeometry x="156" y="370" width="60" height="30" as="geometry" />
        </mxCell>
        <mxCell id="JBllpMUSSV6mAoZpoI0Q-172" value="&lt;span style=&quot;font-size: 16px;&quot;&gt;N&lt;/span&gt;" style="text;html=1;align=center;verticalAlign=middle;whiteSpace=wrap;rounded=0;" vertex="1" parent="1">
          <mxGeometry x="70" y="465" width="60" height="30" as="geometry" />
        </mxCell>
      </root>
    </mxGraphModel>
  </diagram>
</mxfile>
